<!--In svg-icons we use className outline to refer to icon lines, and className innerBackground
for 
the icon background inside the circle for easier css styling
-->


<svg version="1.1" id="Layer_1" xmlns="http://www.w3.org/2000/svg" x="0px" y="0px"
    width="100%" viewBox="0 0 193 193" enableBackground="new 0 0 193 193" space="preserve">
    <path fill="#7a7a7a" className="outline" opacity="1.000000" stroke=""
        d="
            M180.280396,143.212082 
                C170.510925,160.332870 156.994110,173.098129 139.722000,181.577713 
                C124.169868,189.212906 107.412773,192.473618 90.190147,190.852310 
                C69.662369,188.919815 51.406540,181.262939 35.703850,167.367279 
                C18.752401,152.366547 8.427061,133.680817 5.249510,111.702835 
                C0.877647,81.464241 8.885242,54.608822 30.337290,32.014790 
                C44.855881,16.723318 62.487118,7.396072 82.937798,4.238638 
                C109.001213,0.214636 133.078247,6.027391 154.537567,21.959728 
                C172.711151,35.452576 184.060471,53.392986 189.459381,75.061478 
                C194.295990,94.473114 192.636688,113.656647 185.266052,132.282806 
                C183.837143,135.893753 182.127060,139.393463 180.280396,143.212082 
            M115.615952,11.916398 
                C102.749222,8.657681 89.824059,9.222447 77.168816,12.493690 
                C57.419857,17.598583 41.183502,28.332674 28.782381,44.697094 
                C13.318358,65.103294 7.714931,88.193199 12.286847,113.076195 
                C15.854056,132.491013 25.363047,149.120346 40.677803,162.310547 
                C61.260494,180.037857 84.743988,187.011124 111.516441,182.999237 
                C135.854553,179.352142 154.981583,167.027145 169.202057,147.204971 
                C184.689941,125.616112 188.819992,101.364082 182.709579,75.899712 
                C178.638443,58.933781 169.609604,44.382835 156.225082,32.514252 
                C144.595917,22.202200 131.572113,15.263217 115.615952,11.916398 
            z" />
    <path fill="" className='innerBackground' opacity="1.000000" stroke=""
        d="
            M116.048111,11.953007 
                C131.572113,15.263217 144.595917,22.202200 156.225082,32.514252 
                C169.609604,44.382835 178.638443,58.933781 182.709579,75.899712 
                C188.819992,101.364082 184.689941,125.616112 169.202057,147.204971 
                C154.981583,167.027145 135.854553,179.352142 111.516441,182.999237 
                C84.743988,187.011124 61.260494,180.037857 40.677803,162.310547 
                C25.363047,149.120346 15.854056,132.491013 12.286847,113.076195 
                C7.714931,88.193199 13.318358,65.103294 28.782381,44.697094 
                C41.183502,28.332674 57.419857,17.598583 77.168816,12.493690 
                C89.824059,9.222447 102.749222,8.657681 116.048111,11.953007 
            M162.000000,99.500000 
                C161.999985,89.668221 161.946152,79.835976 162.032608,70.004959 
                C162.058685,67.037239 161.948425,64.739433 157.923828,64.932983 
                C154.297897,65.107368 152.768219,66.758369 153.012970,70.217628 
                C153.291092,74.148331 153.992462,78.076355 153.941696,81.998184 
                C153.754898,96.425972 153.931671,110.896683 152.829300,125.263580 
                C151.744873,139.396744 146.214890,147.019730 133.299332,150.630676 
                C126.461006,152.542572 119.017960,152.841690 111.842575,152.880463 
                C97.918831,152.955704 83.964661,152.755112 70.073067,151.877594 
                C56.907669,151.045959 48.086140,145.335663 44.450409,132.627258 
                C42.718845,126.574707 42.044655,120.002831 42.142445,113.685562 
                C42.405857,96.667900 42.514965,79.572929 44.307148,62.680710 
                C45.463421,51.782269 52.900928,45.468021 63.476379,43.207222 
                C71.116974,41.573833 79.123436,41.188549 86.974922,41.114372 
                C98.563652,41.004887 110.157959,41.824329 121.753136,41.951271 
                C131.434601,42.057255 140.114975,44.289497 147.114258,51.489857 
                C148.042770,52.445057 150.284836,53.078674 151.414536,52.619938 
                C152.593018,52.141388 153.820053,50.167805 153.833664,48.835655 
                C153.851501,47.090939 153.156677,44.904274 151.977356,43.653637 
                C145.117462,36.378868 136.211884,33.372402 126.528320,33.087727 
                C114.207222,32.725513 101.865776,32.877594 89.536201,33.041458 
                C80.781708,33.157810 71.944801,32.993546 63.298779,34.128464 
                C44.896091,36.544102 34.723396,50.879005 34.152393,67.822212 
                C33.496052,87.297592 33.632061,106.823318 34.227146,126.302635 
                C34.402813,132.052795 36.392910,138.202744 39.125977,143.330261 
                C46.045002,156.311035 58.059467,160.934418 72.164589,160.984665 
                C89.995407,161.048187 107.834877,161.342087 125.655548,160.912094 
                C147.205887,160.392105 161.359344,146.701508 161.964996,124.495964 
                C162.182999,116.502937 162.000000,108.498970 162.000000,99.500000 
            M68.912064,82.521233 
                C65.247757,88.142891 66.134491,94.485725 65.971268,100.681114 
                C65.898911,103.427689 66.451050,105.155907 69.759689,105.053017 
                C72.862503,104.956535 74.938637,104.062141 74.993401,100.597939 
                C75.019730,98.932251 75.003082,97.265816 74.999397,95.599731 
                C74.968719,81.737396 90.036186,70.215263 104.655724,74.340179 
                C113.702667,76.892776 122.280357,87.923561 121.676704,96.514290 
                C120.847664,108.312553 114.854233,116.527634 103.307785,119.659134 
                C98.804550,120.880455 97.087982,122.858322 98.168991,126.716148 
                C99.334824,130.876678 103.168404,129.141434 105.745415,128.564819 
                C113.428795,126.845634 119.437851,122.612801 124.381004,116.282906 
                C133.122147,105.089546 132.170563,83.615669 120.612839,73.171165 
                C105.656975,59.655811 79.134392,62.124958 68.912064,82.521233 
            M141.036179,63.434864 
                C141.357361,61.726994 141.818268,60.031586 141.971878,58.308777 
                C142.340088,54.179157 140.088043,52.947544 136.267426,52.932827 
                C132.429596,52.918041 129.931915,53.677349 129.946060,58.271683 
                C129.966599,64.947510 132.939041,66.679329 141.036179,63.434864 
            M75.079628,113.445755 
                C74.994614,115.727829 74.425972,118.167732 75.090843,120.205086 
                C75.318932,120.904030 79.108421,121.343796 80.395157,120.525307 
                C81.546478,119.792946 82.087654,117.082764 81.850037,115.392578 
                C81.316750,111.599434 78.045555,113.415573 75.079628,113.445755 
            z" />
    <path fill="#7a7a7a" className="outline" opacity="1.000000" stroke=""
        d="
            M162.000000,100.000000 
                C162.000000,108.498970 162.182999,116.502937 161.964996,124.495964 
                C161.359344,146.701508 147.205887,160.392105 125.655548,160.912094 
                C107.834877,161.342087 89.995407,161.048187 72.164589,160.984665 
                C58.059467,160.934418 46.045002,156.311035 39.125977,143.330261 
                C36.392910,138.202744 34.402813,132.052795 34.227146,126.302635 
                C33.632061,106.823318 33.496052,87.297592 34.152393,67.822212 
                C34.723396,50.879005 44.896091,36.544102 63.298779,34.128464 
                C71.944801,32.993546 80.781708,33.157810 89.536201,33.041458 
                C101.865776,32.877594 114.207222,32.725513 126.528320,33.087727 
                C136.211884,33.372402 145.117462,36.378868 151.977356,43.653637 
                C153.156677,44.904274 153.851501,47.090939 153.833664,48.835655 
                C153.820053,50.167805 152.593018,52.141388 151.414536,52.619938 
                C150.284836,53.078674 148.042770,52.445057 147.114258,51.489857 
                C140.114975,44.289497 131.434601,42.057255 121.753136,41.951271 
                C110.157959,41.824329 98.563652,41.004887 86.974922,41.114372 
                C79.123436,41.188549 71.116974,41.573833 63.476379,43.207222 
                C52.900928,45.468021 45.463421,51.782269 44.307148,62.680710 
                C42.514965,79.572929 42.405857,96.667900 42.142445,113.685562 
                C42.044655,120.002831 42.718845,126.574707 44.450409,132.627258 
                C48.086140,145.335663 56.907669,151.045959 70.073067,151.877594 
                C83.964661,152.755112 97.918831,152.955704 111.842575,152.880463 
                C119.017960,152.841690 126.461006,152.542572 133.299332,150.630676 
                C146.214890,147.019730 151.744873,139.396744 152.829300,125.263580 
                C153.931671,110.896683 153.754898,96.425972 153.941696,81.998184 
                C153.992462,78.076355 153.291092,74.148331 153.012970,70.217628 
                C152.768219,66.758369 154.297897,65.107368 157.923828,64.932983 
                C161.948425,64.739433 162.058685,67.037239 162.032608,70.004959 
                C161.946152,79.835976 161.999985,89.668221 162.000000,100.000000 
            z" />
    <path fill="#7a7a7a" className="outline" opacity="1.000000" stroke=""
        d="
            M68.974930,82.137741 
                C79.134392,62.124958 105.656975,59.655811 120.612839,73.171165 
                C132.170563,83.615669 133.122147,105.089546 124.381004,116.282906 
                C119.437851,122.612801 113.428795,126.845634 105.745415,128.564819 
                C103.168404,129.141434 99.334824,130.876678 98.168991,126.716148 
                C97.087982,122.858322 98.804550,120.880455 103.307785,119.659134 
                C114.854233,116.527634 120.847664,108.312553 121.676704,96.514290 
                C122.280357,87.923561 113.702667,76.892776 104.655724,74.340179 
                C90.036186,70.215263 74.968719,81.737396 74.999397,95.599731 
                C75.003082,97.265816 75.019730,98.932251 74.993401,100.597939 
                C74.938637,104.062141 72.862503,104.956535 69.759689,105.053017 
                C66.451050,105.155907 65.898911,103.427689 65.971268,100.681114 
                C66.134491,94.485725 65.247757,88.142891 68.974930,82.137741 
            z" />
    <path fill="#7a7a7a" className="outline" opacity="1.000000" stroke=""
        d="
            M140.732544,63.737747 
                C132.939041,66.679329 129.966599,64.947510 129.946060,58.271683 
                C129.931915,53.677349 132.429596,52.918041 136.267426,52.932827 
                C140.088043,52.947544 142.340088,54.179157 141.971878,58.308777 
                C141.818268,60.031586 141.357361,61.726994 140.732544,63.737747 
            z" />
    <path fill="#7a7a7a" className="outline" opacity="1.000000" stroke=""
        d="
            M75.463287,113.252533 
                C78.045555,113.415573 81.316750,111.599434 81.850037,115.392578 
                C82.087654,117.082764 81.546478,119.792946 80.395157,120.525307 
                C79.108421,121.343796 75.318932,120.904030 75.090843,120.205086 
                C74.425972,118.167732 74.994614,115.727829 75.463287,113.252533 
            z" />
</svg>