

<!-- In svg-icons we use className outline to refer to icon lines, and className innerBackground for 
the icon background inside the circle for easier css styling -->


<svg version="1.1" id="Layer_1" xmlns="http://www.w3.org/2000/svg" x="0px" y="0px"
    width="100%" viewBox="0 0 193 193" enableBackground="new 0 0 193 193" space="preserve">
    <path fill="#7A7A7A" className="outline" opacity="1.000000" stroke="none"
        d="
M130.665237,9.286064 
	C141.367783,13.430687 150.593582,19.129173 159.018295,26.408426 
	C174.047623,39.394295 183.803497,55.558949 188.239960,74.714645 
	C195.295471,105.178856 189.139084,132.798203 169.289383,157.272934 
	C154.554260,175.441391 135.342560,185.985458 112.677971,189.809601 
	C85.624695,194.374222 60.593353,188.029037 39.036697,171.219666 
	C20.637135,156.872101 9.148403,137.785263 4.878927,114.424774 
	C-0.338368,85.878296 6.110291,60.198250 23.966623,37.826767 
	C38.829735,19.205366 58.672047,7.929019 82.369461,4.081457 
	C98.764061,1.419595 114.742165,3.581445 130.665237,9.286064 
M11.012618,112.203133 
	C15.345520,132.100296 24.328299,149.211685 40.063709,162.653702 
	C60.536934,180.143005 83.924385,187.003372 110.478203,183.012024 
	C134.786041,179.358292 154.004349,167.137222 168.131012,147.245697 
	C184.128693,124.719635 188.169815,99.738052 180.854874,73.226456 
	C176.370056,56.972153 167.516281,43.235733 154.629654,32.027790 
	C131.602417,12.000206 105.275894,5.646552 75.829803,12.685250 
	C55.377594,17.574083 38.941143,29.164602 26.666111,46.049667 
	C15.941624,60.801868 9.795502,77.461021 10.040523,96.014137 
	C10.107929,101.118095 10.667844,106.215546 11.012618,112.203133 
z" />
    <path fill="" className='innerBackground' opacity="1.000000" stroke="none"
        d="
M11.007193,111.759560 
	C10.667844,106.215546 10.107929,101.118095 10.040523,96.014137 
	C9.795502,77.461021 15.941624,60.801868 26.666111,46.049667 
	C38.941143,29.164602 55.377594,17.574083 75.829803,12.685250 
	C105.275894,5.646552 131.602417,12.000206 154.629654,32.027790 
	C167.516281,43.235733 176.370056,56.972153 180.854874,73.226456 
	C188.169815,99.738052 184.128693,124.719635 168.131012,147.245697 
	C154.004349,167.137222 134.786041,179.358292 110.478203,183.012024 
	C83.924385,187.003372 60.536934,180.143005 40.063709,162.653702 
	C24.328299,149.211685 15.345520,132.100296 11.007193,111.759560 
M108.112991,77.402054 
	C112.090477,76.574905 116.031975,75.421310 120.051788,74.978012 
	C136.065689,73.212029 150.150085,87.789749 151.840393,101.672195 
	C152.997116,111.172256 152.716751,120.852036 152.988708,130.454025 
	C153.455734,146.944870 152.622437,146.166885 136.980972,145.997604 
	C131.009033,145.932968 129.028839,143.954010 129.008835,137.914429 
	C128.976288,128.081924 129.021378,118.249184 128.993637,108.416649 
	C128.968735,99.581383 122.615234,93.996246 112.661583,94.000000 
	C103.264175,94.003548 97.023750,99.803192 97.004494,108.593513 
	C96.984413,117.759468 97.187019,126.931503 96.892128,136.087997 
	C96.797050,139.040192 95.567650,141.995972 94.613518,144.869186 
	C93.647987,147.776749 93.533562,150.307999 96.476074,152.114471 
	C99.217033,153.797226 101.594429,153.174500 103.075600,150.468887 
	C104.042923,148.701904 104.882690,146.598618 104.916092,144.631302 
	C105.094368,134.135086 104.903427,123.633041 105.035095,113.135468 
	C105.121742,106.228096 108.818405,102.318176 114.186546,103.010841 
	C118.307411,103.542557 120.936562,107.453697 120.979477,113.508522 
	C121.052711,123.840576 120.987999,134.173538 121.004555,144.506104 
	C121.014236,150.551514 124.333565,153.972275 130.221558,153.993759 
	C137.387604,154.019913 144.553879,154.018387 151.719940,153.994263 
	C157.671631,153.974213 160.987503,150.606552 160.994797,144.564575 
	C161.011292,130.898926 160.850479,117.231071 161.049789,103.568314 
	C161.195496,93.578423 157.247391,85.285194 150.683746,78.306175 
	C138.732635,65.598747 123.916512,63.378361 107.660904,67.776123 
	C105.083900,68.473289 102.807556,69.152702 100.416267,67.088745 
	C99.451721,66.256233 97.705147,66.073532 96.305649,66.046150 
	C90.641563,65.935341 84.973946,65.977852 79.307823,66.005333 
	C71.217743,66.044579 65.017235,72.289787 65.006554,80.447601 
	C64.984749,97.113014 64.859779,113.779999 65.040337,130.443481 
	C65.213058,146.384094 65.001167,146.249908 49.490528,146.010590 
	C42.881817,145.908630 41.009975,144.095154 41.004547,137.424286 
	C40.990856,120.592194 41.000000,103.760094 41.000000,86.927994 
	C40.999996,74.371460 41.375038,73.865387 54.137272,74.035423 
	C69.825325,74.244423 77.116684,57.819260 71.421715,45.034515 
	C67.549294,36.341209 60.244732,33.673023 50.879498,33.815884 
	C41.514858,33.958733 30.873074,43.995979 33.133194,55.336025 
	C33.338936,56.368328 34.885754,57.652611 36.008743,57.893864 
	C41.150543,58.998470 41.244793,54.984173 42.032146,51.633568 
	C43.391041,45.850777 48.423405,42.465801 54.665344,43.004280 
	C59.076263,43.384800 63.653984,48.024521 63.996712,52.462029 
	C64.486588,58.804733 61.199783,63.835037 55.226330,64.905998 
	C50.881012,65.685059 46.397343,65.792366 41.966202,65.967125 
	C36.606136,66.178513 33.020046,69.492256 33.013283,74.748070 
	C32.983047,98.246307 32.983242,121.744621 33.013123,145.242859 
	C33.019810,150.502014 36.598450,153.962814 41.958450,153.990952 
	C48.957745,154.027710 55.980255,153.644714 62.950836,154.093597 
	C70.928299,154.607330 73.717094,148.406631 73.717041,142.524887 
	C73.716873,123.262527 73.149628,104.000404 73.112633,84.737595 
	C73.105644,81.098175 73.799095,76.278679 78.179405,75.597137 
	C83.643181,74.747025 89.353279,75.423325 94.951752,75.603851 
	C95.397606,75.618225 96.001282,76.851540 96.194511,77.604851 
	C97.556686,82.915405 100.635429,82.164574 104.174088,79.955147 
	C105.282196,79.263275 106.392265,78.574532 108.112991,77.402054 
M84.572113,153.997299 
	C87.181190,154.189407 89.490135,153.678055 88.893867,150.413483 
	C88.607780,148.847153 87.474731,146.577026 86.283157,146.253372 
	C84.816650,145.855103 81.683708,146.814362 81.407753,147.790771 
	C80.805916,149.920319 79.567123,153.244965 84.572113,153.997299 
z" />
    <path fill="#7A7A7A" className="outline" opacity="1.000000" stroke="none"
        d="
M107.807213,77.643204 
	C106.392265,78.574532 105.282196,79.263275 104.174088,79.955147 
	C100.635429,82.164574 97.556686,82.915405 96.194511,77.604851 
	C96.001282,76.851540 95.397606,75.618225 94.951752,75.603851 
	C89.353279,75.423325 83.643181,74.747025 78.179405,75.597137 
	C73.799095,76.278679 73.105644,81.098175 73.112633,84.737595 
	C73.149628,104.000404 73.716873,123.262527 73.717041,142.524887 
	C73.717094,148.406631 70.928299,154.607330 62.950836,154.093597 
	C55.980255,153.644714 48.957745,154.027710 41.958450,153.990952 
	C36.598450,153.962814 33.019810,150.502014 33.013123,145.242859 
	C32.983242,121.744621 32.983047,98.246307 33.013283,74.748070 
	C33.020046,69.492256 36.606136,66.178513 41.966202,65.967125 
	C46.397343,65.792366 50.881012,65.685059 55.226330,64.905998 
	C61.199783,63.835037 64.486588,58.804733 63.996712,52.462029 
	C63.653984,48.024521 59.076263,43.384800 54.665344,43.004280 
	C48.423405,42.465801 43.391041,45.850777 42.032146,51.633568 
	C41.244793,54.984173 41.150543,58.998470 36.008743,57.893864 
	C34.885754,57.652611 33.338936,56.368328 33.133194,55.336025 
	C30.873074,43.995979 41.514858,33.958733 50.879498,33.815884 
	C60.244732,33.673023 67.549294,36.341209 71.421715,45.034515 
	C77.116684,57.819260 69.825325,74.244423 54.137272,74.035423 
	C41.375038,73.865387 40.999996,74.371460 41.000000,86.927994 
	C41.000000,103.760094 40.990856,120.592194 41.004547,137.424286 
	C41.009975,144.095154 42.881817,145.908630 49.490528,146.010590 
	C65.001167,146.249908 65.213058,146.384094 65.040337,130.443481 
	C64.859779,113.779999 64.984749,97.113014 65.006554,80.447601 
	C65.017235,72.289787 71.217743,66.044579 79.307823,66.005333 
	C84.973946,65.977852 90.641563,65.935341 96.305649,66.046150 
	C97.705147,66.073532 99.451721,66.256233 100.416267,67.088745 
	C102.807556,69.152702 105.083900,68.473289 107.660904,67.776123 
	C123.916512,63.378361 138.732635,65.598747 150.683746,78.306175 
	C157.247391,85.285194 161.195496,93.578423 161.049789,103.568314 
	C160.850479,117.231071 161.011292,130.898926 160.994797,144.564575 
	C160.987503,150.606552 157.671631,153.974213 151.719940,153.994263 
	C144.553879,154.018387 137.387604,154.019913 130.221558,153.993759 
	C124.333565,153.972275 121.014236,150.551514 121.004555,144.506104 
	C120.987999,134.173538 121.052711,123.840576 120.979477,113.508522 
	C120.936562,107.453697 118.307411,103.542557 114.186546,103.010841 
	C108.818405,102.318176 105.121742,106.228096 105.035095,113.135468 
	C104.903427,123.633041 105.094368,134.135086 104.916092,144.631302 
	C104.882690,146.598618 104.042923,148.701904 103.075600,150.468887 
	C101.594429,153.174500 99.217033,153.797226 96.476074,152.114471 
	C93.533562,150.307999 93.647987,147.776749 94.613518,144.869186 
	C95.567650,141.995972 96.797050,139.040192 96.892128,136.087997 
	C97.187019,126.931503 96.984413,117.759468 97.004494,108.593513 
	C97.023750,99.803192 103.264175,94.003548 112.661583,94.000000 
	C122.615234,93.996246 128.968735,99.581383 128.993637,108.416649 
	C129.021378,118.249184 128.976288,128.081924 129.008835,137.914429 
	C129.028839,143.954010 131.009033,145.932968 136.980972,145.997604 
	C152.622437,146.166885 153.455734,146.944870 152.988708,130.454025 
	C152.716751,120.852036 152.997116,111.172256 151.840393,101.672195 
	C150.150085,87.789749 136.065689,73.212029 120.051788,74.978012 
	C116.031975,75.421310 112.090477,76.574905 107.807213,77.643204 
z" />
    <path fill="#7A7A7A" className="outline" opacity="1.000000" stroke="none"
        d="
M84.146042,153.990906 
	C79.567123,153.244965 80.805916,149.920319 81.407753,147.790771 
	C81.683708,146.814362 84.816650,145.855103 86.283157,146.253372 
	C87.474731,146.577026 88.607780,148.847153 88.893867,150.413483 
	C89.490135,153.678055 87.181190,154.189407 84.146042,153.990906 
z" />
</svg>